<svg viewBox="0 0 355 48" xmlns="http://www.w3.org/2000/svg" data-logo="logo">
        <g transform="translate(0, 3.5) rotate(0)" id="logogram" style="opacity: 1;"><path fill="#1F77E1" d="M37.5569 2.04585C38.4821 1.08338 39.7385 0.542663 41.0469 0.542664C46.9335 0.542664 52.4811 0.542667 57.9442 0.542678C68.932 0.542701 74.4342 14.3629 66.6646 22.4456L49.7407 40.0517C48.9637 40.86 47.6352 40.2875 47.6352 39.1444V23.6376L49.591 21.6029C51.145 19.9864 50.0444 17.2223 47.8468 17.2223H22.9684L37.5569 2.04585Z"></path><path fill="#1C3039" d="M33.0467 38.8142C32.1215 39.7767 30.8651 40.3174 29.5567 40.3174C23.6701 40.3174 18.1225 40.3174 12.6594 40.3174C1.67159 40.3173 -3.83061 26.4972 3.93897 18.4144L20.8629 0.808361C21.6399 8.48472e-05 22.9684 0.57254 22.9684 1.71562L22.9684 17.2223L21.0126 19.2571C19.4586 20.8737 20.5592 23.6377 22.7568 23.6377L47.6352 23.6376L33.0467 38.8142Z"></path></g>
        <g transform="translate(77, 1)" id="logotype" style="opacity: 1;"><path d="M11.85 37L9.10 37L9.10 10.96L11.74 10.99Q12.62 10.99 13.53 10.93Q14.44 10.87 15.49 10.81Q16.54 10.75 17.85 10.75L17.85 10.75Q21.19 10.75 23.28 11.55Q25.37 12.34 26.34 13.79Q27.30 15.25 27.30 17.22L27.30 17.22Q27.30 18.54 26.87 19.75Q26.44 20.97 25.57 21.86Q24.69 22.75 23.36 23.12L23.36 23.12Q24.90 23.28 26.13 24.09Q27.35 24.91 28.07 26.21Q28.79 27.52 28.79 29.14L28.79 29.14Q28.79 31.52 27.83 33.34Q26.88 35.16 24.56 36.20Q22.24 37.24 18.11 37.24L18.11 37.24Q16.43 37.24 14.65 37.15Q12.88 37.05 11.85 37L11.85 37ZM14.54 14.70L14.54 21.79Q14.86 21.84 15.29 21.87Q15.73 21.90 16.21 21.91Q16.69 21.91 17.12 21.91Q17.55 21.91 17.88 21.91L17.88 21.91Q19.84 21.91 20.94 20.95Q22.03 19.99 22.03 17.80L22.03 17.80Q22.03 16.02 20.78 15.25Q19.53 14.48 17.16 14.48L17.16 14.48Q16.90 14.48 16.34 14.50Q15.78 14.53 15.26 14.57Q14.73 14.62 14.54 14.70L14.54 14.70ZM14.54 25.57L14.54 33.15Q14.79 33.31 15.42 33.39Q16.06 33.48 16.80 33.52Q17.53 33.55 18.11 33.55L18.11 33.55Q20.59 33.55 21.91 32.60Q23.22 31.64 23.22 29.35L23.22 29.35Q23.22 27.38 21.99 26.41Q20.75 25.45 18.04 25.45L18.04 25.45Q17.66 25.45 17.16 25.45Q16.66 25.45 16.14 25.47Q15.63 25.48 15.21 25.50Q14.79 25.52 14.54 25.57L14.54 25.57ZM38.36 37L33.02 37L33.02 17.52L38.36 17.52L38.36 37ZM35.42 14.70L35.42 14.70Q34.12 14.70 33.23 13.90Q32.34 13.09 32.34 11.80L32.34 11.80Q32.34 10.92 32.82 10.20Q33.30 9.47 34.08 9.03Q34.86 8.60 35.75 8.60L35.75 8.60Q37.19 8.60 38.00 9.41Q38.81 10.22 38.81 11.50L38.81 11.50Q38.81 12.83 37.81 13.77Q36.80 14.70 35.42 14.70ZM49.24 37L43.92 37L43.92 17.52L48.77 17.52L48.86 19.71Q49.52 19.15 50.56 18.58Q51.59 18.01 52.84 17.63Q54.09 17.24 55.37 17.22L55.37 17.22Q58.41 17.15 59.85 18.84Q61.28 20.53 61.28 24.77L61.28 24.77L61.28 37L55.93 37L55.93 25.52Q55.93 23.24 55.33 22.34Q54.74 21.42 53.01 21.49L53.01 21.49Q52.48 21.51 51.82 21.68Q51.17 21.84 50.49 22.17Q49.82 22.49 49.24 22.96L49.24 22.96L49.24 37ZM71.54 37.28L71.54 37.28Q69.68 37.28 68.28 36.53Q66.88 35.77 66.10 34.43Q65.33 33.08 65.33 31.29L65.33 31.29Q65.33 29.51 66.30 28.23Q67.27 26.95 68.93 26.24L68.93 26.24Q70.07 25.77 71.42 25.50Q72.78 25.24 74.14 25.13Q75.49 25.03 76.67 25.03L76.67 25.03L77.56 26.13L76.67 27.85Q76.04 27.85 75.25 27.93Q74.46 28.02 73.73 28.19Q73.01 28.35 72.52 28.56L72.52 28.56Q71.84 28.88 71.30 29.41Q70.77 29.93 70.77 31.02L70.77 31.02Q70.77 32.43 71.56 33.11Q72.34 33.78 73.59 33.78L73.59 33.78Q74.23 33.78 74.87 33.60Q75.51 33.43 76.00 33.19Q76.49 32.96 76.67 32.75L76.67 32.75L77.59 33.85L76.95 35.35Q76.16 36.05 74.78 36.67Q73.41 37.28 71.54 37.28ZM82.00 24.12L82.00 37L76.95 37L76.95 34.09L76.67 34.09L76.67 23.59Q76.67 22.11 75.88 21.64Q75.09 21.18 73.62 21.18L73.62 21.18Q72.52 21.18 71.32 21.37Q70.12 21.56 69.05 21.88Q67.99 22.20 67.27 22.56L67.27 22.56L66.11 19.20Q66.71 18.85 67.97 18.38Q69.23 17.91 70.86 17.55Q72.48 17.19 74.13 17.19L74.13 17.19Q76.82 17.19 78.56 17.82Q80.31 18.45 81.15 19.95Q82.00 21.46 82.00 24.12L82.00 24.12ZM92.05 24.29L92.05 24.29L91.80 20.55Q92.12 19.71 92.96 18.95Q93.80 18.19 94.95 17.71Q96.11 17.22 97.39 17.22L97.39 17.22Q97.91 17.22 98.36 17.28Q98.80 17.33 99.01 17.45L99.01 17.45L99.01 22.65Q98.77 22.49 98.26 22.34Q97.75 22.18 96.72 22.18L96.72 22.18Q95.46 22.18 94.55 22.54Q93.64 22.89 93.02 23.39Q92.40 23.89 92.05 24.29ZM92.36 37L87.03 37L87.03 17.52L91.65 17.52L91.94 20.57L92.36 21.49L92.36 37ZM102.09 45.37L102.09 45.37L102.09 41.16Q102.39 41.27 103.03 41.38Q103.67 41.48 104.04 41.48L104.04 41.48Q104.88 41.48 105.88 41.17Q106.89 40.87 107.76 39.81Q108.64 38.75 109.09 36.51L109.09 36.51L109.34 37L107.03 37L100.20 17.50L105.89 17.50L109.23 28.79L110.81 34.78L110.07 34.78L111.49 28.79L114.22 17.50L119.87 17.50L113.61 37.51Q112.49 41.01 110.87 42.81Q109.25 44.61 107.38 45.23L107.38 45.23Q106.85 45.44 106.04 45.56Q105.23 45.68 104.61 45.68L104.61 45.68Q104.35 45.68 103.79 45.63Q103.23 45.58 102.71 45.51Q102.20 45.44 102.09 45.37ZM134.08 37L129.11 37L129.11 10.99L134.19 10.99L143.94 26.38L147.33 33.15L146.12 33.15L145.34 24.42L145.34 10.99L150.34 10.99L150.34 37L144.92 37L135.61 22.09L131.70 14.39L133.17 14.39L134.08 23.86L134.08 37ZM164.13 37.28L164.13 37.28Q159.63 37.28 157.24 34.60Q154.84 31.93 154.84 27.20L154.84 27.20Q154.84 24.36 155.93 22.13Q157.03 19.88 159.11 18.58Q161.19 17.28 164.20 17.26L164.20 17.26Q165.72 17.24 167.11 17.64Q168.49 18.05 169.57 18.95Q170.66 19.85 171.31 21.33Q171.97 22.81 171.99 24.94L171.99 24.94Q171.99 26.01 171.95 26.92Q171.92 27.83 171.80 28.48L171.80 28.48L157.71 28.48L158.06 25.59L167.02 25.59Q167.11 24.17 166.87 23.10Q166.63 22.02 165.95 21.42Q165.27 20.81 164.03 20.81L164.03 20.81Q162.82 20.81 161.92 21.48Q161.02 22.14 160.53 23.76Q160.05 25.38 160.12 28.21L160.12 28.21Q160.19 30.12 160.87 31.27Q161.54 32.41 162.70 32.91Q163.87 33.41 165.41 33.41L165.41 33.41Q166.25 33.41 167.25 33.27Q168.24 33.13 169.14 32.90Q170.03 32.66 170.50 32.41L170.50 32.41L171.39 35.32Q170.75 35.84 169.62 36.29Q168.49 36.74 167.06 37.01Q165.64 37.28 164.13 37.28ZM182.17 37.28L182.17 37.28Q180.39 37.28 179.22 36.69Q178.06 36.11 177.49 34.83Q176.92 33.55 176.92 31.45L176.92 31.45L176.92 21.16L174.56 21.16L174.56 18.31Q175.86 17.94 176.63 17.61Q177.41 17.28 177.76 16.45L177.76 16.45Q177.94 16.05 178.14 15.51Q178.34 14.97 178.57 14.34Q178.80 13.71 179.04 13.06L179.04 13.06L182.26 13.06L182.26 17.50L187.49 17.50L187.49 21.16L182.26 21.16L182.26 29.20Q182.26 31.05 182.45 31.90Q182.65 32.75 183.12 32.98Q183.59 33.22 184.48 33.22L184.48 33.22Q184.94 33.22 185.53 33.11Q186.13 32.99 186.67 32.82Q187.21 32.64 187.51 32.45L187.51 32.45L188.21 35.44Q187.74 35.86 186.79 36.29Q185.85 36.72 184.64 37Q183.43 37.28 182.17 37.28ZM200.02 37.28L195.11 37.28L189.21 17.50L194.46 17.50L196.78 26.85L198.34 34.18L197.14 34.18L198.78 26.87L201.46 17.50L206.39 17.50L209.07 26.85L210.65 34.13L209.49 34.13L211.01 26.90L213.32 17.50L218.36 17.50L212.29 37.28L207.55 37.28L204.47 26.52L203.28 20.71L204.24 20.71L203.02 26.52L200.02 37.28ZM229.07 37.28L229.07 37.28Q226.52 37.28 224.73 36.45Q222.95 35.62 221.85 34.16Q220.76 32.71 220.27 30.83Q219.78 28.95 219.80 26.85L219.80 26.85Q219.85 23.73 221.10 21.60Q222.35 19.46 224.51 18.36Q226.68 17.26 229.42 17.26L229.42 17.26Q232.85 17.26 234.90 18.69Q236.95 20.13 237.84 22.50Q238.73 24.87 238.68 27.66L238.68 27.66Q238.65 30.79 237.40 32.93Q236.16 35.08 234.01 36.18Q231.85 37.28 229.07 37.28ZM229.21 33.55L229.21 33.55Q231.29 33.57 232.24 31.99Q233.19 30.42 233.19 27.43L233.19 27.43Q233.19 25.66 232.80 24.21Q232.41 22.75 231.57 21.88Q230.72 21.00 229.32 20.99L229.32 20.99Q227.22 20.97 226.27 22.52Q225.33 24.07 225.33 26.99L225.33 26.99Q225.33 28.77 225.71 30.27Q226.10 31.77 226.95 32.66Q227.79 33.55 229.21 33.55ZM247.52 24.29L247.52 24.29L247.27 20.55Q247.59 19.71 248.43 18.95Q249.27 18.19 250.42 17.71Q251.58 17.22 252.86 17.22L252.86 17.22Q253.38 17.22 253.83 17.28Q254.27 17.33 254.48 17.45L254.48 17.45L254.48 22.65Q254.24 22.49 253.73 22.34Q253.22 22.18 252.19 22.18L252.19 22.18Q250.93 22.18 250.02 22.54Q249.11 22.89 248.49 23.39Q247.87 23.89 247.52 24.29ZM247.83 37L242.50 37L242.50 17.52L247.12 17.52L247.41 20.57L247.83 21.49L247.83 37ZM269.78 17.50L275.92 17.50L262.94 31.29L263.18 30.16L263.25 33.53L263.25 37L258.02 37L258.02 25.41L258.02 8.61L263.25 8.61L263.25 21.13L263.04 27.04L262.22 26.25L269.78 17.50ZM270.56 37L264.98 28.23L268.52 24.61L276.53 37L270.56 37Z" fill="#1c3039"></path></g>
        
      </svg>